<svg id="dribbble-icon-1" xmlns="http://www.w3.org/2000/svg" width="22.026" height="22" viewBox="0 0 22.026 22">
  <path id="Path_102" data-name="Path 102" d="M18.873,8.5A10.269,10.269,0,1,1,8.6,18.773,10.265,10.265,0,0,1,18.873,8.5Z" transform="translate(-7.86 -7.769)" fill="#e74d89"/>
  <path id="Path_103" data-name="Path 103" d="M11.013,22A11,11,0,1,1,22.026,11,11.014,11.014,0,0,1,11.013,22ZM20.3,12.5a13.872,13.872,0,0,0-5.859-.4,40.134,40.134,0,0,1,1.824,6.694A9.34,9.34,0,0,0,20.3,12.5Zm-5.61,7.158a39.01,39.01,0,0,0-2-7.124.16.16,0,0,1-.06.017A12.921,12.921,0,0,0,5.24,18.421,9.37,9.37,0,0,0,11.013,20.4a9.19,9.19,0,0,0,3.674-.74ZM4.027,17.294a14.991,14.991,0,0,1,7.649-6.2c.12-.043.25-.077.37-.112-.232-.533-.49-1.067-.766-1.592A34.747,34.747,0,0,1,1.609,10.72c0,.095-.009.189-.009.284a9.4,9.4,0,0,0,2.426,6.289ZM1.807,9.086a34.821,34.821,0,0,0,8.7-1.144A60.053,60.053,0,0,0,7.021,2.512,9.421,9.421,0,0,0,1.807,9.086Zm7-7.21a49.465,49.465,0,0,1,3.51,5.5,10.664,10.664,0,0,0,4.93-3.39,9.378,9.378,0,0,0-6.238-2.366A9.767,9.767,0,0,0,8.81,1.876Zm9.481,3.192a12.526,12.526,0,0,1-5.248,3.708c.215.447.43.9.628,1.359.069.163.138.327.206.482a22.1,22.1,0,0,1,6.548.3,9.357,9.357,0,0,0-2.134-5.851Z" fill="#b2215a"/>
</svg>
