<svg xmlns="http://www.w3.org/2000/svg" width="14" height="14" viewBox="0 0 14 14">
  <path id="Icon_awesome-dribbble" data-name="Icon awesome-dribbble" d="M7.562.563a7,7,0,1,0,7,7A7.008,7.008,0,0,0,7.562.563Zm4.628,3.228a5.951,5.951,0,0,1,1.35,3.725,13.973,13.973,0,0,0-4.163-.192c-.162-.4-.316-.745-.525-1.175A7.965,7.965,0,0,0,12.191,3.791ZM11.526,3.1a6.751,6.751,0,0,1-3.134,2.16,31.915,31.915,0,0,0-2.231-3.5A5.964,5.964,0,0,1,11.526,3.1ZM5.021,2.161A38.15,38.15,0,0,1,7.237,5.619a22.3,22.3,0,0,1-5.528.728A6,6,0,0,1,5.021,2.161ZM1.583,7.572c0-.061,0-.122,0-.183a22.056,22.056,0,0,0,6.145-.851c.171.335.335.675.485,1.015a9.261,9.261,0,0,0-5.1,4.017A5.955,5.955,0,0,1,1.583,7.572Zm2.309,4.717a8.41,8.41,0,0,1,4.73-3.747A24.853,24.853,0,0,1,9.9,13.076a5.967,5.967,0,0,1-6.006-.787Zm7.011.24A25.806,25.806,0,0,0,9.742,8.265a8.776,8.776,0,0,1,3.724.256A5.99,5.99,0,0,1,10.9,12.528Z" transform="translate(-0.563 -0.563)" fill="#09fbf3"/>
</svg>
