<svg xmlns="http://www.w3.org/2000/svg" width="14.359" height="14" viewBox="0 0 14.359 14">
  <path id="Icon_awesome-github" data-name="Icon awesome-github" d="M4.8,11.835c0,.058-.067.1-.151.1s-.162-.038-.162-.1.067-.1.151-.1S4.8,11.769,4.8,11.835Zm-.9-.13c-.02.058.038.124.124.142a.136.136,0,0,0,.179-.058c.017-.058-.038-.124-.124-.151A.149.149,0,0,0,3.9,11.705Zm1.28-.049c-.084.02-.142.075-.133.142s.084.1.171.075.142-.075.133-.133S5.266,11.647,5.182,11.656ZM7.087.563A6.942,6.942,0,0,0,0,7.626a7.258,7.258,0,0,0,4.907,6.925c.371.067.5-.162.5-.35S5.4,13.031,5.4,12.423c0,0-2.026.434-2.452-.863,0,0-.33-.842-.8-1.06,0,0-.663-.455.046-.446a1.528,1.528,0,0,1,1.117.747,1.53,1.53,0,0,0,2.11.605,1.609,1.609,0,0,1,.463-.976c-1.618-.179-3.251-.414-3.251-3.2a2.194,2.194,0,0,1,.683-1.705,2.735,2.735,0,0,1,.075-1.966c.605-.188,2,.782,2,.782a6.839,6.839,0,0,1,3.636,0s1.392-.973,2-.782a2.734,2.734,0,0,1,.075,1.966,2.25,2.25,0,0,1,.747,1.705c0,2.794-1.705,3.016-3.323,3.2a1.712,1.712,0,0,1,.492,1.343c0,.976-.009,2.183-.009,2.42,0,.188.133.417.5.35a7.191,7.191,0,0,0,4.858-6.919A7.1,7.1,0,0,0,7.087.563ZM2.814,10.547c-.038.029-.029.1.02.151s.113.067.151.029.029-.1-.02-.151S2.851,10.509,2.814,10.547ZM2.5,10.313c-.02.038.009.084.067.113a.086.086,0,0,0,.124-.02c.02-.038-.009-.084-.067-.113S2.521,10.284,2.5,10.313Zm.938,1.031c-.046.038-.029.124.038.179s.151.075.188.029.02-.124-.038-.179S3.477,11.3,3.439,11.343Zm-.33-.426c-.046.029-.046.1,0,.171s.124.1.162.067a.132.132,0,0,0,0-.179C3.231,10.909,3.155,10.88,3.109,10.918Z" transform="translate(0 -0.563)" fill="#09fbf3"/>
</svg>
