<svg id="github-icon-1" xmlns="http://www.w3.org/2000/svg" width="22.557" height="22" viewBox="0 0 22.557 22">
  <path id="Path_98" data-name="Path 98" d="M11.278,0A11.28,11.28,0,0,0,7.713,21.981c.564.1.771-.245.771-.543,0-.269-.011-1.157-.015-2.1-3.138.682-3.8-1.331-3.8-1.331a2.986,2.986,0,0,0-1.252-1.65c-1.023-.7.077-.686.077-.686a2.371,2.371,0,0,1,1.729,1.162,2.4,2.4,0,0,0,3.282.938,2.4,2.4,0,0,1,.716-1.508c-2.505-.285-5.139-1.252-5.139-5.574A4.365,4.365,0,0,1,5.244,7.662a4.053,4.053,0,0,1,.109-2.985s.947-.3,3.1,1.156a10.7,10.7,0,0,1,5.648,0c2.153-1.459,3.1-1.156,3.1-1.156a4.048,4.048,0,0,1,.111,2.985,4.356,4.356,0,0,1,1.161,3.027c0,4.332-2.638,5.286-5.15,5.565a2.7,2.7,0,0,1,.765,2.089c0,1.509-.013,2.724-.013,3.1,0,.3.2.652.775.541A11.28,11.28,0,0,0,11.278,0" fill="#fff"/>
  <path id="Path_99" data-name="Path 99" d="M44.642,179.663c-.025.056-.113.073-.193.034s-.128-.113-.1-.169.113-.074.194-.035.129.114.1.17m.555.495c-.054.05-.159.027-.23-.052a.172.172,0,0,1-.033-.234c.055-.05.157-.027.231.052s.088.184.032.234m.381.633c-.069.048-.182,0-.252-.1s-.069-.221,0-.269.181,0,.252.095.069.222,0,.271m.644.733c-.062.068-.193.05-.29-.043a.217.217,0,0,1-.064-.288c.063-.068.195-.049.292.043s.128.221.062.288m.832.248c-.027.088-.154.128-.282.091s-.211-.142-.185-.231.154-.131.283-.091.211.141.185.231m.947.105c0,.093-.105.17-.239.172s-.244-.072-.245-.164.106-.17.241-.173.244.072.244.165m.93-.036c.016.091-.077.184-.21.209s-.252-.032-.269-.122.079-.186.209-.21.253.031.27.124" transform="translate(-40.418 -163.597)" fill="#fff"/>
</svg>
