<svg xmlns="http://www.w3.org/2000/svg" width="14.003" height="14" viewBox="0 0 14.003 14">
  <path id="Icon_awesome-instagram" data-name="Icon awesome-instagram" d="M7,5.648a3.589,3.589,0,1,0,3.589,3.589A3.584,3.584,0,0,0,7,5.648Zm0,5.923A2.334,2.334,0,1,1,9.331,9.238,2.338,2.338,0,0,1,7,11.571ZM11.571,5.5a.837.837,0,1,1-.837-.837A.835.835,0,0,1,11.571,5.5Zm2.377.85a4.143,4.143,0,0,0-1.131-2.933A4.17,4.17,0,0,0,9.884,2.287c-1.156-.066-4.62-.066-5.776,0A4.164,4.164,0,0,0,1.175,3.415,4.157,4.157,0,0,0,.044,6.348c-.066,1.156-.066,4.62,0,5.776a4.143,4.143,0,0,0,1.131,2.933,4.176,4.176,0,0,0,2.933,1.131c1.156.066,4.62.066,5.776,0a4.143,4.143,0,0,0,2.933-1.131,4.17,4.17,0,0,0,1.131-2.933c.066-1.156.066-4.617,0-5.773Zm-1.493,7.013A2.363,2.363,0,0,1,11.125,14.7,15.429,15.429,0,0,1,7,14.976,15.549,15.549,0,0,1,2.871,14.7,2.363,2.363,0,0,1,1.54,13.364a15.429,15.429,0,0,1-.281-4.127A15.549,15.549,0,0,1,1.54,5.111,2.363,2.363,0,0,1,2.871,3.78,15.429,15.429,0,0,1,7,3.5a15.549,15.549,0,0,1,4.127.281,2.363,2.363,0,0,1,1.331,1.331,15.429,15.429,0,0,1,.281,4.127A15.42,15.42,0,0,1,12.455,13.364Z" transform="translate(0.005 -2.238)" fill="#09fbf3"/>
</svg>
