<svg id="instagram-2016" xmlns="http://www.w3.org/2000/svg" xmlns:xlink="http://www.w3.org/1999/xlink" width="22" height="22.001" viewBox="0 0 22 22.001">
  <defs>
    <radialGradient id="radial-gradient" cx="0.133" cy="1.005" r="1.305" gradientTransform="translate(0)" gradientUnits="objectBoundingBox">
      <stop offset="0.09" stop-color="#fa8f21"/>
      <stop offset="0.78" stop-color="#d82d7e"/>
    </radialGradient>
    <radialGradient id="radial-gradient-2" cx="0.606" cy="1.05" r="1.029" gradientTransform="translate(0)" gradientUnits="objectBoundingBox">
      <stop offset="0.64" stop-color="#8c3aaa" stop-opacity="0"/>
      <stop offset="1" stop-color="#8c3aaa"/>
    </radialGradient>
  </defs>
  <path id="Path_96" data-name="Path 96" d="M7.334,11A3.667,3.667,0,1,1,11,14.668,3.667,3.667,0,0,1,7.334,11M5.352,11A5.649,5.649,0,1,0,11,5.352,5.648,5.648,0,0,0,5.352,11m10.2-5.873a1.32,1.32,0,1,0,1.321-1.32h0a1.321,1.321,0,0,0-1.32,1.32m-9,14.827a6.08,6.08,0,0,1-2.043-.378,3.419,3.419,0,0,1-1.265-.823,3.394,3.394,0,0,1-.823-1.264,6.074,6.074,0,0,1-.378-2.043c-.053-1.16-.064-1.508-.064-4.445s.012-3.285.064-4.445a6.12,6.12,0,0,1,.378-2.043,3.419,3.419,0,0,1,.823-1.265,3.39,3.39,0,0,1,1.265-.823,6.074,6.074,0,0,1,2.043-.378c1.16-.053,1.508-.064,4.444-.064s3.285.012,4.445.064a6.12,6.12,0,0,1,2.043.378,3.408,3.408,0,0,1,1.265.823,3.408,3.408,0,0,1,.823,1.265,6.074,6.074,0,0,1,.378,2.043c.053,1.161.064,1.508.064,4.445s-.011,3.285-.064,4.445a6.1,6.1,0,0,1-.378,2.043,3.642,3.642,0,0,1-2.088,2.087,6.074,6.074,0,0,1-2.043.378c-1.16.053-1.508.064-4.445.064s-3.285-.011-4.444-.064M6.465.067A8.066,8.066,0,0,0,3.8.578,5.4,5.4,0,0,0,1.846,1.846,5.375,5.375,0,0,0,.578,3.8a8.069,8.069,0,0,0-.511,2.67C.012,7.638,0,8.013,0,11s.012,3.362.067,4.535a8.068,8.068,0,0,0,.511,2.67,5.377,5.377,0,0,0,1.269,1.949A5.409,5.409,0,0,0,3.8,21.423a8.073,8.073,0,0,0,2.67.511C7.639,21.988,8.013,22,11,22s3.362-.012,4.535-.067a8.068,8.068,0,0,0,2.67-.511,5.624,5.624,0,0,0,3.217-3.217,8.046,8.046,0,0,0,.511-2.67C21.988,14.362,22,13.988,22,11s-.012-3.362-.066-4.535a8.066,8.066,0,0,0-.511-2.67,5.41,5.41,0,0,0-1.269-1.949A5.383,5.383,0,0,0,18.207.578a8.056,8.056,0,0,0-2.67-.511C14.364.013,13.989,0,11,0S7.639.012,6.465.067" transform="translate(0 0)" fill="url(#radial-gradient)"/>
  <path id="Path_97" data-name="Path 97" d="M7.334,11A3.667,3.667,0,1,1,11,14.668,3.667,3.667,0,0,1,7.334,11M5.352,11A5.649,5.649,0,1,0,11,5.352,5.648,5.648,0,0,0,5.352,11m10.2-5.873a1.32,1.32,0,1,0,1.321-1.32h0a1.321,1.321,0,0,0-1.32,1.32m-9,14.827a6.08,6.08,0,0,1-2.043-.378,3.419,3.419,0,0,1-1.265-.823,3.394,3.394,0,0,1-.823-1.264,6.074,6.074,0,0,1-.378-2.043c-.053-1.16-.064-1.508-.064-4.445s.012-3.285.064-4.445a6.12,6.12,0,0,1,.378-2.043,3.419,3.419,0,0,1,.823-1.265,3.39,3.39,0,0,1,1.265-.823,6.074,6.074,0,0,1,2.043-.378c1.16-.053,1.508-.064,4.444-.064s3.285.012,4.445.064a6.12,6.12,0,0,1,2.043.378,3.408,3.408,0,0,1,1.265.823,3.408,3.408,0,0,1,.823,1.265,6.074,6.074,0,0,1,.378,2.043c.053,1.161.064,1.508.064,4.445s-.011,3.285-.064,4.445a6.1,6.1,0,0,1-.378,2.043,3.642,3.642,0,0,1-2.088,2.087,6.074,6.074,0,0,1-2.043.378c-1.16.053-1.508.064-4.445.064s-3.285-.011-4.444-.064M6.465.067A8.066,8.066,0,0,0,3.8.578,5.4,5.4,0,0,0,1.846,1.846,5.375,5.375,0,0,0,.578,3.8a8.069,8.069,0,0,0-.511,2.67C.012,7.638,0,8.013,0,11s.012,3.362.067,4.535a8.068,8.068,0,0,0,.511,2.67,5.377,5.377,0,0,0,1.269,1.949A5.409,5.409,0,0,0,3.8,21.423a8.073,8.073,0,0,0,2.67.511C7.639,21.988,8.013,22,11,22s3.362-.012,4.535-.067a8.068,8.068,0,0,0,2.67-.511,5.624,5.624,0,0,0,3.217-3.217,8.046,8.046,0,0,0,.511-2.67C21.988,14.362,22,13.988,22,11s-.012-3.362-.066-4.535a8.066,8.066,0,0,0-.511-2.67,5.41,5.41,0,0,0-1.269-1.949A5.383,5.383,0,0,0,18.207.578a8.056,8.056,0,0,0-2.67-.511C14.364.013,13.989,0,11,0S7.639.012,6.465.067" transform="translate(0 0)" fill="url(#radial-gradient-2)"/>
</svg>
