<svg id="linkedin-icon-2" xmlns="http://www.w3.org/2000/svg" width="22" height="22" viewBox="0 0 22 22">
  <path id="Path_100" data-name="Path 100" d="M0,1.576A1.6,1.6,0,0,1,1.626,0H20.374A1.6,1.6,0,0,1,22,1.576V20.424A1.6,1.6,0,0,1,20.374,22H1.626A1.6,1.6,0,0,1,0,20.425V1.576Z" fill="#069"/>
  <path id="Path_101" data-name="Path 101" d="M40.716,58.107V48.2H37.424v9.9h3.292ZM39.071,46.85a1.842,1.842,0,1,0-.022,0h.021Zm3.468,11.257H45.83V52.576a2.254,2.254,0,0,1,.108-.8,1.8,1.8,0,0,1,1.689-1.2c1.191,0,1.668.908,1.668,2.24v5.3h3.292V52.428c0-3.042-1.624-4.458-3.79-4.458a3.28,3.28,0,0,0-2.989,1.668h.022V48.2H42.539c.043.929,0,9.9,0,9.9Z" transform="translate(-34.031 -39.696)" fill="#fff"/>
</svg>
