<svg xmlns="http://www.w3.org/2000/svg" width="14" height="14" viewBox="0 0 14 14">
  <path id="Icon_awesome-linkedin" data-name="Icon awesome-linkedin" d="M13,2.25H1A1,1,0,0,0,0,3.259V15.241A1,1,0,0,0,1,16.25H13a1.007,1.007,0,0,0,1-1.009V3.259A1.007,1.007,0,0,0,13,2.25Zm-8.769,12H2.156V7.569H4.234V14.25ZM3.194,6.656a1.2,1.2,0,1,1,1.2-1.2,1.2,1.2,0,0,1-1.2,1.2Zm8.816,7.594H9.934V11c0-.775-.016-1.772-1.078-1.772-1.081,0-1.247.844-1.247,1.716V14.25H5.534V7.569H7.525v.912h.028A2.186,2.186,0,0,1,9.519,7.4c2.1,0,2.491,1.384,2.491,3.184Z" transform="translate(0 -2.25)" fill="#09fbf3"/>
</svg>
