<svg xmlns="http://www.w3.org/2000/svg" width="37.938" height="42.126" viewBox="0 0 37.938 42.126">
  <g id="logo" transform="translate(1 1.063)">
    <path id="Path_31" data-name="Path 31" d="M175.694,227.9v-5.245a1.184,1.184,0,0,0-.358-.815l-4.667-4.65a1.208,1.208,0,0,0-.877-.325h-1.426v4.565h-3.3v-12.5h3.3v4.7h1.426a4.447,4.447,0,0,1,3.24,1.33l4.475,4.54a6.012,6.012,0,0,1,1.058,1.47,3.657,3.657,0,0,1,.4,1.685V227.9Zm-10.618,0a7.727,7.727,0,0,1-2.54-.41,6.7,6.7,0,0,1-2.056-1.1,5.253,5.253,0,0,1-1.371-1.645,4.283,4.283,0,0,1-.509-2.04V208.9h3.266v13.81a1.251,1.251,0,0,0,.247.75,2.407,2.407,0,0,0,.685.61,3.678,3.678,0,0,0,1.028.42,5.063,5.063,0,0,0,1.25.15h6.491a.911.911,0,0,1,.917.91v2.35Z" transform="translate(-150.79 -198.4)" fill="#09fbf3"/>
    <path id="Path_107" data-name="Path 107" d="M4.909,8.817,17.835,1.349a5.016,5.016,0,0,1,5.024,0l12.96,7.5a5.018,5.018,0,0,1,2.5,4.344l.015,14.981a5.023,5.023,0,0,1-2.509,4.354L22.9,40a5.016,5.016,0,0,1-5.024,0L4.919,32.5a5.018,5.018,0,0,1-2.5-4.344L2.4,13.171A5.023,5.023,0,0,1,4.909,8.817Z" transform="translate(-2.4 -0.675)" fill="none" stroke="#2bfbf3" stroke-width="2"/>
  </g>
</svg>
