<svg id="Logo" xmlns="http://www.w3.org/2000/svg" width="35.965" height="40" viewBox="0 0 35.965 40">
  <path id="Path_31" data-name="Path 31" d="M175.694,227.9v-5.245a1.184,1.184,0,0,0-.358-.815l-4.667-4.65a1.208,1.208,0,0,0-.877-.325h-1.426v4.565h-3.3v-12.5h3.3v4.7h1.426a4.447,4.447,0,0,1,3.24,1.33l4.475,4.54a6.012,6.012,0,0,1,1.058,1.47,3.657,3.657,0,0,1,.4,1.685V227.9Zm-10.618,0a7.726,7.726,0,0,1-2.54-.41,6.7,6.7,0,0,1-2.056-1.1,5.253,5.253,0,0,1-1.371-1.645,4.283,4.283,0,0,1-.509-2.04V208.9h3.266v13.81a1.251,1.251,0,0,0,.247.75,2.406,2.406,0,0,0,.685.61,3.678,3.678,0,0,0,1.028.42,5.063,5.063,0,0,0,1.25.15h6.491a.911.911,0,0,1,.917.91v2.35Z" transform="translate(-150.79 -198.4)" fill="#09fbf3"/>
  <g id="Path_32" data-name="Path 32" transform="translate(-2.4 -0.675)" fill="none" stroke-linecap="round" stroke-linejoin="round">
    <path d="M5.464,9.772a3.927,3.927,0,0,0-1.959,3.4L3.52,28.148a3.917,3.917,0,0,0,1.954,3.385l12.968,7.5a3.935,3.935,0,0,0,3.922,0L35.3,31.578a3.927,3.927,0,0,0,1.959-3.4L37.245,13.2a3.917,3.917,0,0,0-1.954-3.385l-12.973-7.5a3.935,3.935,0,0,0-3.922,0L5.464,9.772m-.552-.954L17.849,1.349a5.023,5.023,0,0,1,5.027,0l12.968,7.5A5.017,5.017,0,0,1,38.35,13.2l.015,14.981a5.022,5.022,0,0,1-2.511,4.354L22.916,40a5.023,5.023,0,0,1-5.027,0L4.921,32.5a5.017,5.017,0,0,1-2.506-4.344L2.4,13.172A5.022,5.022,0,0,1,4.911,8.817Z" stroke="none"/>
    <path d="M 20.36219596862793 0.6749954223632812 C 21.22979545593262 0.6749954223632812 22.0973949432373 0.8997421264648438 22.8758487701416 1.349235534667969 L 35.84340286254883 8.852542877197266 C 37.39529418945312 9.751527786254883 38.34952545166016 11.40386581420898 38.34952545166016 13.19682121276855 L 38.36458969116211 28.17829704284668 C 38.36458969116211 29.97626686096191 37.41035842895508 31.63362121582031 35.85345077514648 32.53261947631836 L 22.91603469848633 40.00075912475586 C 22.13758087158203 40.45026016235352 21.26997947692871 40.67501068115234 20.40237998962402 40.67501068115234 C 19.53478050231934 40.67501068115234 18.66718101501465 40.45026016235352 17.88872718811035 40.00075912475586 L 4.921188354492188 32.49746704101562 C 3.369297027587891 31.59846687316895 2.415065765380859 29.94614410400391 2.415065765380859 28.15319061279297 L 2.400001525878906 13.17171287536621 C 2.400001525878906 11.37372779846191 3.354232788085938 9.716373443603516 4.911140441894531 8.817390441894531 L 17.84854125976562 1.349235534667969 C 18.62699508666992 0.8997421264648438 19.49459648132324 0.6749954223632812 20.36219596862793 0.6749954223632812 Z M 20.40237998962402 39.56005096435547 C 21.08039093017578 39.56005096435547 21.75840377807617 39.38552856445312 22.36358833312988 39.03648376464844 L 35.30098724365234 31.57838821411133 C 36.51135635375977 30.88028144836426 37.25968170166016 29.57951354980469 37.25968170166016 28.18332672119141 L 37.2446174621582 13.19682121276855 C 37.2446174621582 11.80565071105957 36.49629592895508 10.5048656463623 35.29095840454102 9.811805725097656 L 22.31838798522949 2.308498382568359 C 21.71319580078125 1.959449768066406 21.03518867492676 1.784927368164062 20.35718154907227 1.784927368164062 C 19.67917633056641 1.784927368164062 19.00117301940918 1.959449768066406 18.39598846435547 2.308498382568359 L 5.463603973388672 9.77161979675293 C 4.253219604492188 10.46971321105957 3.504894256591797 11.77048110961914 3.504894256591797 13.16668128967285 L 3.519973754882812 28.14815902709961 C 3.519973754882812 29.53932762145996 4.268295288085938 30.84009742736816 5.4736328125 31.53317451477051 L 18.44117164611816 39.03648376464844 C 19.04635620117188 39.38552856445312 19.72436904907227 39.56005096435547 20.40237998962402 39.56005096435547 Z" stroke="none" fill="#2bfbf3"/>
  </g>
</svg>
