<svg id="Logo" xmlns="http://www.w3.org/2000/svg" width="35.965" height="40" viewBox="0 0 35.965 40">
  <path id="Path_31" data-name="Path 31" d="M175.694,227.9v-5.245a1.184,1.184,0,0,0-.358-.815l-4.667-4.65a1.208,1.208,0,0,0-.877-.325h-1.426v4.565h-3.3v-12.5h3.3v4.7h1.426a4.447,4.447,0,0,1,3.24,1.33l4.475,4.54a6.012,6.012,0,0,1,1.058,1.47,3.657,3.657,0,0,1,.4,1.685V227.9Zm-10.618,0a7.726,7.726,0,0,1-2.54-.41,6.7,6.7,0,0,1-2.056-1.1,5.253,5.253,0,0,1-1.371-1.645,4.283,4.283,0,0,1-.509-2.04V208.9h3.266v13.81a1.251,1.251,0,0,0,.247.75,2.406,2.406,0,0,0,.685.61,3.678,3.678,0,0,0,1.028.42,5.063,5.063,0,0,0,1.25.15h6.491a.911.911,0,0,1,.917.91v2.35Z" transform="translate(-150.79 -198.4)" fill="#09fbf3"/>
  <path id="Path_32" data-name="Path 32" d="M5.464,9.772a3.927,3.927,0,0,0-1.959,3.4L3.52,28.148a3.917,3.917,0,0,0,1.954,3.385l12.968,7.5a3.935,3.935,0,0,0,3.922,0L35.3,31.578a3.927,3.927,0,0,0,1.959-3.4L37.245,13.2a3.917,3.917,0,0,0-1.954-3.385l-12.973-7.5a3.935,3.935,0,0,0-3.922,0L5.464,9.772m-.552-.954L17.849,1.349a5.023,5.023,0,0,1,5.027,0l12.968,7.5A5.017,5.017,0,0,1,38.35,13.2l.015,14.981a5.022,5.022,0,0,1-2.511,4.354L22.916,40a5.023,5.023,0,0,1-5.027,0L4.921,32.5a5.017,5.017,0,0,1-2.506-4.344L2.4,13.172A5.022,5.022,0,0,1,4.911,8.817Z" transform="translate(-2.4 -0.675)" fill="#09fbf3"/>
</svg>
