<svg xmlns="http://www.w3.org/2000/svg" xmlns:xlink="http://www.w3.org/1999/xlink" width="53.334" height="60" viewBox="0 0 53.334 60">
  <defs>
    <linearGradient id="linear-gradient" x1="-10.229" y1="13.597" x2="-10.229" y2="14.597" gradientUnits="objectBoundingBox">
      <stop offset="0.387" stop-color="#d1d3d4" stop-opacity="0"/>
      <stop offset="1" stop-color="#d1d3d4"/>
    </linearGradient>
    <linearGradient id="linear-gradient-2" x1="-9.516" y1="14.078" x2="-9.516" y2="15.078" xlink:href="#linear-gradient"/>
    <linearGradient id="linear-gradient-3" x1="-5.39" y1="6.703" x2="-4.39" y2="6.703" gradientUnits="objectBoundingBox">
      <stop offset="0" stop-color="#e8e7e5"/>
      <stop offset="1" stop-color="#fff"/>
    </linearGradient>
    <linearGradient id="linear-gradient-4" x1="-4.964" y1="30.297" x2="-3.964" y2="30.297" xlink:href="#linear-gradient-3"/>
  </defs>
  <g id="css3" transform="translate(-11.326 -15.653)">
    <path id="Path_36" data-name="Path 36" d="M149.98,181.1l-21.667,5.834L106.647,181.1l-5-54.166h53.334Z" transform="translate(-90.322 -111.277)" fill="#2062af"/>
    <path id="Path_37" data-name="Path 37" d="M269.289,154.511v50.961l.049.014,17.534-4.722,4.047-46.253Z" transform="translate(-231.298 -134.472)" fill="#3c9cd7"/>
    <path id="Path_39" data-name="Path 39" d="M187.186,203.084l-15.508,6.459.514,6.394,14.993-6.41,15.95-6.819.661-6.541-16.611,6.918Z" transform="translate(-149.215 -169.5)" fill="#fff"/>
    <path id="Path_40" data-name="Path 40" d="M171.677,246.115l.514,6.394,14.993-6.41v-6.443Z" transform="translate(-149.214 -206.073)" fill="url(#linear-gradient)"/>
    <path id="Path_41" data-name="Path 41" d="M285.779,196.167l-16.611,6.918v6.446l15.95-6.819Z" transform="translate(-231.197 -169.501)" fill="url(#linear-gradient-2)"/>
    <path id="Path_42" data-name="Path 42" d="M171.827,280.259l.514,6.394,23.005.073-.517,8.527-7.57,2.132-7.277-1.838-.441-5.292h-6.761l.882,10.211,13.671,4.042,13.6-3.968,1.764-20.286Z" transform="translate(-149.34 -240.217)" fill="url(#linear-gradient-3)"/>
    <path id="Path_43" data-name="Path 43" d="M187.186,280.258H171.678l.514,6.394,14.993.047v-6.443Zm0,17.1-.073.02-7.276-1.838-.441-5.292h-6.761l.882,10.211,13.67,4.042Z" transform="translate(-149.215 -240.217)" opacity="0.05"/>
    <path id="Path_44" data-name="Path 44" d="M162.9,196.167h33.515l-.661,6.541H163.706Z" transform="translate(-141.83 -169.501)" fill="url(#linear-gradient-4)"/>
    <path id="Path_45" data-name="Path 45" d="M179.8,196.167H162.9l.808,6.541h16.1v-6.541Z" transform="translate(-141.832 -169.501)" opacity="0.05"/>
  </g>
</svg>
