<svg xmlns="http://www.w3.org/2000/svg" width="115" height="33.306" viewBox="0 0 115 33.306">
  <path id="express-109" d="M.748,25.971v-12.8h15.98v-.749H.748V.748h16.99V0H0V26.72H17.888v-.748H.749ZM32.3,7.484,25.672,16.2,19.2,7.485h-.973l7,9.281L17.551,26.72h.9l7.223-9.393,7.26,9.393h.935l-7.709-9.954,7.035-9.281h-.9Zm3.817,25.822V21.331h.075a7.686,7.686,0,0,0,2.657,4.21,7.822,7.822,0,0,0,5.052,1.59,7.311,7.311,0,0,0,6.081-2.994,10.191,10.191,0,0,0,1.572-3.218,13.518,13.518,0,0,0,.543-3.854,13.626,13.626,0,0,0-.562-4A9.585,9.585,0,0,0,49.9,9.88a7.483,7.483,0,0,0-2.582-2.1A7.628,7.628,0,0,0,43.9,7.036a8.3,8.3,0,0,0-2.713.43,7.263,7.263,0,0,0-2.227,1.216,8.237,8.237,0,0,0-1.684,1.852,8.53,8.53,0,0,0-1.085,2.339h-.075V7.484h-.748V33.306h.748ZM43.9,26.42a7.173,7.173,0,0,1-5.651-2.414q-2.133-2.414-2.133-6.942a11.9,11.9,0,0,1,.524-3.555,9.208,9.208,0,0,1,1.515-2.956A7.278,7.278,0,0,1,40.6,8.532,7.111,7.111,0,0,1,43.9,7.784a6.856,6.856,0,0,1,3.275.749,6.638,6.638,0,0,1,2.32,2.039,9.5,9.5,0,0,1,1.385,2.956,13.026,13.026,0,0,1,.468,3.536,13.328,13.328,0,0,1-.43,3.349,9.575,9.575,0,0,1-1.329,2.994,7.231,7.231,0,0,1-2.3,2.17,6.467,6.467,0,0,1-3.387.842Zm12.312.3V15.83a10.613,10.613,0,0,1,.449-3.069,7.515,7.515,0,0,1,1.384-2.638,6.489,6.489,0,0,1,2.376-1.8,7.212,7.212,0,0,1,3.424-.543V7.035a9.272,9.272,0,0,0-3.012.374A7.316,7.316,0,0,0,58.6,8.532a5.735,5.735,0,0,0-1.5,1.665,7.446,7.446,0,0,0-.823,2.039h-.075V7.484h-.748V26.72h.748Zm8.57-9.468H80.87a13.319,13.319,0,0,0-.393-3.817,9.494,9.494,0,0,0-1.5-3.256A7.621,7.621,0,0,0,76.324,7.9a8.18,8.18,0,0,0-3.873-.861,7.876,7.876,0,0,0-5.838,2.638,9.969,9.969,0,0,0-1.871,3.163A11.951,11.951,0,0,0,64.03,17.1a15.646,15.646,0,0,0,.487,3.985,9.337,9.337,0,0,0,1.5,3.218,6.755,6.755,0,0,0,2.6,2.114,8.606,8.606,0,0,0,3.836.711,8.416,8.416,0,0,0,5.538-1.852,7.667,7.667,0,0,0,2.657-5.221H79.9a7.2,7.2,0,0,1-2.489,4.771,7.839,7.839,0,0,1-5.034,1.59,7.727,7.727,0,0,1-3.48-.711,6.306,6.306,0,0,1-2.32-1.946,8.488,8.488,0,0,1-1.328-2.9,15.6,15.6,0,0,1-.468-3.611ZM80.122,16.5H64.779a11.569,11.569,0,0,1,.748-3.63,9,9,0,0,1,1.665-2.751,6.96,6.96,0,0,1,2.4-1.74,7.236,7.236,0,0,1,2.938-.6,7.437,7.437,0,0,1,3.293.692,6.8,6.8,0,0,1,2.376,1.89,8.335,8.335,0,0,1,1.441,2.788,11.389,11.389,0,0,1,.486,3.349ZM96.4,13.173h.748a5.567,5.567,0,0,0-1.871-4.678,8.07,8.07,0,0,0-5.09-1.46,8.927,8.927,0,0,0-3.031.449,6.06,6.06,0,0,0-2.021,1.16,4.176,4.176,0,0,0-1.123,1.572,4.515,4.515,0,0,0-.337,1.647,4.847,4.847,0,0,0,.562,2.507A3.694,3.694,0,0,0,86,15.83a13.547,13.547,0,0,0,1.871.674q1.048.3,2.433.636,1.235.3,2.433.6a8.787,8.787,0,0,1,2.114.8,4.57,4.57,0,0,1,1.5,1.291,3.382,3.382,0,0,1,.58,2.058,3.661,3.661,0,0,1-.58,2.1,4.675,4.675,0,0,1-1.478,1.4,6.583,6.583,0,0,1-2,.786,9.986,9.986,0,0,1-2.152.243A7.943,7.943,0,0,1,85.492,24.9a5.871,5.871,0,0,1-1.815-4.772h-.749q0,3.63,1.965,5.314t5.819,1.684a11.366,11.366,0,0,0,2.489-.281,6.915,6.915,0,0,0,2.245-.917,5.074,5.074,0,0,0,1.609-1.646,4.653,4.653,0,0,0,.618-2.47,4.157,4.157,0,0,0-.543-2.245,4.552,4.552,0,0,0-1.422-1.422,7.542,7.542,0,0,0-1.983-.879q-1.11-.32-2.227-.618-1.374-.36-2.751-.711a16.7,16.7,0,0,1-2.189-.711,3.714,3.714,0,0,1-1.553-1.179,3.573,3.573,0,0,1-.58-2.189,5.158,5.158,0,0,1,.15-.935,3.355,3.355,0,0,1,.711-1.366,4.787,4.787,0,0,1,1.721-1.235,7.644,7.644,0,0,1,3.181-.543,9.956,9.956,0,0,1,2.526.3,5.252,5.252,0,0,1,1.965.954A4.342,4.342,0,0,1,95.952,10.7a6.07,6.07,0,0,1,.449,2.47Zm17.327,0h.748a5.567,5.567,0,0,0-1.871-4.678,8.069,8.069,0,0,0-5.09-1.46,8.926,8.926,0,0,0-3.031.449,6.056,6.056,0,0,0-2.021,1.16,4.173,4.173,0,0,0-1.123,1.572A4.515,4.515,0,0,0,101,11.863a4.847,4.847,0,0,0,.562,2.507,3.693,3.693,0,0,0,1.759,1.46,13.554,13.554,0,0,0,1.871.674q1.048.3,2.433.636,1.235.3,2.433.6a8.789,8.789,0,0,1,2.114.8,4.569,4.569,0,0,1,1.5,1.291,3.381,3.381,0,0,1,.58,2.058,3.661,3.661,0,0,1-.58,2.1,4.675,4.675,0,0,1-1.478,1.4,6.585,6.585,0,0,1-2,.786,9.985,9.985,0,0,1-2.152.243,7.943,7.943,0,0,1-5.22-1.515A5.871,5.871,0,0,1,101,20.133h-.748q0,3.63,1.965,5.314t5.819,1.684a11.363,11.363,0,0,0,2.489-.281,6.919,6.919,0,0,0,2.245-.917,5.074,5.074,0,0,0,1.609-1.646,4.653,4.653,0,0,0,.617-2.47,4.155,4.155,0,0,0-.543-2.245,4.549,4.549,0,0,0-1.422-1.422,7.546,7.546,0,0,0-1.983-.879q-1.11-.32-2.227-.618-1.374-.36-2.75-.711a16.691,16.691,0,0,1-2.189-.711,3.712,3.712,0,0,1-1.553-1.179,3.573,3.573,0,0,1-.58-2.189,5.143,5.143,0,0,1,.15-.935,3.357,3.357,0,0,1,.711-1.366,4.79,4.79,0,0,1,1.721-1.235,7.645,7.645,0,0,1,3.181-.543,9.956,9.956,0,0,1,2.526.3,5.253,5.253,0,0,1,1.965.954,4.342,4.342,0,0,1,1.272,1.665,6.07,6.07,0,0,1,.449,2.47Z" fill="#fff"/>
</svg>
