<svg xmlns="http://www.w3.org/2000/svg" width="52.905" height="60" viewBox="0 0 52.905 60">
  <g id="html-5" transform="translate(-0.445 -11.791)">
    <path id="Path_46" data-name="Path 46" d="M53.35,70.766l-4.82,53.994-21.664,6.006-21.6-6-4.815-54Z" transform="translate(0 -58.975)" fill="#e44d26"/>
    <path id="Path_47" data-name="Path 47" d="M128,143.05l17.506-4.854,4.118-46.14H128Z" transform="translate(-101.103 -75.85)" fill="#f16529"/>
    <path id="Path_48" data-name="Path 48" d="M55.155,130.617h9.369V124H47.917l.158,1.777L49.7,144.029H64.525v-6.624H55.76Zm1.493,16.717H50l.927,10.4L64.492,161.5l.03-.009V154.6l-.029.007-7.377-1.991Z" transform="translate(-37.627 -101.163)" fill="#ebebeb"/>
    <path id="Path_50" data-name="Path 50" d="M127.889,144.022h8.156l-.769,8.588-7.387,1.991v6.89l13.58-3.762.1-1.12,1.557-17.437.162-1.779h-15.4Zm0-13.422v.016h16l.133-1.493.3-3.36.158-1.762H127.89v6.6Z" transform="translate(-101.015 -101.163)" fill="#fff"/>
  </g>
</svg>
