<svg id="Layer_2_1_" xmlns="http://www.w3.org/2000/svg" width="61.538" height="60" viewBox="0 0 61.538 60">
  <g id="Surfaces">
    <g id="Drawing_Surface">
      <g id="Outline_no_shadow">
        <path id="Path_84" data-name="Path 84" d="M10.9,0H50.641a10.888,10.888,0,0,1,10.9,10.9V49.1A10.888,10.888,0,0,1,50.641,60H10.9A10.888,10.888,0,0,1,0,49.1V10.9A10.888,10.888,0,0,1,10.9,0Z" fill="#300"/>
      </g>
    </g>
  </g>
  <g id="Outlined_Mnemonics_Logos" transform="translate(12.715 13.308)">
    <g id="Ai">
      <path id="Path_85" data-name="Path 85" d="M66.7,80.541H57.157l-1.949,6.026a.449.449,0,0,1-.487.359H49.9c-.282,0-.359-.154-.282-.462l8.256-23.769c.077-.256.154-.538.256-.846a8.957,8.957,0,0,0,.154-1.667.254.254,0,0,1,.205-.282h6.641c.205,0,.308.077.333.205l9.359,26.41c.077.282,0,.41-.256.41H69.208a.387.387,0,0,1-.41-.282Zm-8.051-5.205h6.513c-.154-.538-.359-1.179-.59-1.846-.231-.692-.462-1.436-.692-2.205-.256-.795-.487-1.564-.744-2.359s-.487-1.538-.692-2.282c-.205-.718-.385-1.385-.564-2h-.051a31.483,31.483,0,0,1-.872,3.308c-.385,1.231-.769,2.513-1.179,3.795-.359,1.308-.744,2.513-1.128,3.59Z" transform="translate(-49.59 -57.849)" fill="#ff9a00"/>
      <path id="Path_86" data-name="Path 86" d="M160.65,58.336a3.173,3.173,0,0,1-2.282-.9,3.331,3.331,0,0,1-.872-2.359,3.017,3.017,0,0,1,.923-2.282,3.284,3.284,0,0,1,2.282-.9,3.07,3.07,0,0,1,2.333.9,3.525,3.525,0,0,1-.051,4.641A3.015,3.015,0,0,1,160.65,58.336Zm-2.872,22.256V60.849c0-.256.1-.359.333-.359h5.077c.231,0,.333.128.333.359V80.592c0,.282-.1.41-.333.41h-5.026A.359.359,0,0,1,157.778,80.592Z" transform="translate(-129.827 -51.9)" fill="#ff9a00"/>
    </g>
  </g>
</svg>
