<svg id="javascript" xmlns="http://www.w3.org/2000/svg" width="56.158" height="56.158" viewBox="0 0 56.158 56.158">
  <path id="Path_51" data-name="Path 51" d="M0,0H56.158V56.158H0Z" fill="#f7df1e"/>
  <path id="Path_52" data-name="Path 52" d="M67.311,137.6l4.3-2.6c.829,1.47,1.583,2.714,3.392,2.714,1.734,0,2.828-.678,2.828-3.317V116.455h5.277v18.018c0,5.466-3.2,7.954-7.879,7.954a8.191,8.191,0,0,1-7.916-4.825m18.661-.565,4.3-2.488a5.744,5.744,0,0,0,5.2,3.2c2.187,0,3.581-1.093,3.581-2.6,0-1.809-1.432-2.45-3.845-3.505l-1.319-.566c-3.808-1.62-6.333-3.656-6.333-7.954,0-3.958,3.016-6.974,7.728-6.974a7.794,7.794,0,0,1,7.5,4.222l-4.109,2.639c-.9-1.621-1.885-2.262-3.392-2.262a2.3,2.3,0,0,0-2.526,2.262c0,1.583.98,2.224,3.242,3.2l1.319.565c4.486,1.923,7.012,3.883,7.012,8.293,0,4.75-3.732,7.351-8.745,7.351-4.9,0-8.067-2.337-9.612-5.391" transform="translate(-52.545 -90.673)"/>
</svg>
