<svg id="jquery-1" xmlns="http://www.w3.org/2000/svg" width="115" height="26.134" viewBox="0 0 115 26.134">
  <path id="Path_56" data-name="Path 56" d="M448.187,8.646l4.828.027s-8.977,12.165-9.71,13.156a5.656,5.656,0,0,0-.783,1.1,24.491,24.491,0,0,0-.94,3.446l-4.418.022a18.184,18.184,0,0,0,.659-3.781,14.6,14.6,0,0,0-.94-3.446c-.332-1.165-.783-3.446-.783-3.446h4.542l.626,2.506,6.918-9.58" transform="translate(-338.016 -6.715)" fill="#fff" fill-rule="evenodd"/>
  <path id="Path_57" data-name="Path 57" d="M180.229,4.575c.891.537,1.438,3.5,1.438,3.5s-4.663.069-7.2.069h-2.193l-2.663,11.59H165.54s2.534-12.6,3.132-14.879c.194-.739,1.328-.612,3.244-.612h3.059c1.975,0,4.284-.252,5.255.332m-18.957,5.645a2.441,2.441,0,0,0-.431-1.605c-.476-.734-.916-.905-2.169-.945-3.538-.111-3.469,2.511-3.469,2.511Zm3.837-3c.518,1.87-.47,6.265-.47,6.265s-5.161-.086-7.988,0c-.879.027-1.931-.1-2.193.313-.368.573.135,1.455.561,1.828a3.545,3.545,0,0,0,1.789.521,59.2,59.2,0,0,0,7.1.075l-.832,3.683s-6.786.34-10.18-.47a3.455,3.455,0,0,1-1.723-.94c-.116-.125-.216-.3-.326-.443a4.115,4.115,0,0,1-.457-.81c-.775-2.066.091-6.023.94-8.144.1-.246.222-.557.353-.822.163-.33.3-.7.431-.9.087-.136.2-.224.287-.352a5.257,5.257,0,0,1,.34-.431,6.454,6.454,0,0,1,1.1-.94,10.351,10.351,0,0,1,7.048-1.566,5.379,5.379,0,0,1,3.759,1.723,5.258,5.258,0,0,1,.47,1.41ZM146.432,4.228l3.948-.023s-2.2,10.439-3.322,15.529h-4.542c-3.174,0-6,.393-7.2-1.88-1.167-2.207-.053-5.835.47-8.3.37-1.745,1.148-5.311,1.148-5.311l4.091-.037s-1.156,5.552-1.637,8.324c-.172.993-.527,1.928-.156,2.662.352.7.846.749,2.349.783.476.011,2.036,0,2.036,0l2.819-11.747m-18.481,7.518a15,15,0,0,0,.94-4.385,3.765,3.765,0,0,0-2.036-2.976,5.217,5.217,0,0,0-5.325,1.253,8.692,8.692,0,0,0-1.88,4.542,6.831,6.831,0,0,0,0,4.072c.943,1.98,3.883,1.548,7.048,1.566.47-1.259.858-2.673,1.253-4.072Zm5.482-5.795c.451,3.279-1.279,6.9-2.472,10.047,1.215.11,2.281-.017,2.357.074.08.117-.815,3.757-1.126,3.767-.965.025-4.161.052-5.494.052-4.349,0-8.418.283-10.493-1.879a6.821,6.821,0,0,1-1.566-3.446,14.613,14.613,0,0,1,.47-5.325,16.117,16.117,0,0,1,1.566-4.072C118.5,1.978,121.682-.39,127.011.157a9.926,9.926,0,0,1,3.446,1.1c.064.038.288.216.34.248A6.818,6.818,0,0,1,133.433,5.951Zm-19.244-1.7c-.263,1.2-.526,2.556-.8,3.74H109c.34-1.312.6-2.617.94-3.759,1.4,0,2.708.019,4.249.019m-5.346,4.837h4.229c-.553,3.06-1.648,8-2.506,11.433-.537,2.151-.9,3.72-2.349,4.855-.13.1-.205.053-.313.157a5.984,5.984,0,0,1-2.192.626,31.525,31.525,0,0,1-3.746-.012c.359-1.311.764-2.885,1.084-4.06,3.341.4,3.425-2.753,4.072-5.795.374-1.757,1.508-6.5,1.723-7.2" transform="translate(-79.201 -0.078)" fill="#fff" fill-rule="evenodd"/>
  <g id="Group_3" data-name="Group 3" transform="translate(0 2.105)">
    <path id="Path_58" data-name="Path 58" d="M20.756,34.833l-.091.235A8.861,8.861,0,0,1,12.482,40a11.442,11.442,0,0,1-4.7-.94,12.137,12.137,0,0,1-5.638-5.325C.531,30.609.239,26.258,3.6,23.008c.052,0-.407.7-.355.7l-.092.3C.73,31.589,8.185,38.081,15.431,37.338a9.519,9.519,0,0,0,5.325-2.506" transform="translate(-0.981 -19.944)" fill="#21609b" fill-rule="evenodd"/>
    <path id="Path_59" data-name="Path 59" d="M36.832,24.5a6.934,6.934,0,0,0,4.855-2.036c-.987,2.5-3.843,4.114-7.674,3.6a8.263,8.263,0,0,1-6.578-6.891c-.23-2.354.59-3.759,1.942-5.463a5.716,5.716,0,0,0-.689,2.017c-.514,5.092,4.067,8.744,8.144,8.771" transform="translate(-21.442 -12.743)" fill="#21609b" fill-rule="evenodd"/>
    <path id="Path_60" data-name="Path 60" d="M59.385,14.849a5.714,5.714,0,0,1-2.636,2.031,5.022,5.022,0,0,1-5.638-2.285,7.052,7.052,0,0,1-.452-1.018,4.3,4.3,0,0,1,.907-4.16,5.2,5.2,0,0,0-.207,2.741,6.087,6.087,0,0,0,.755,1.649,4.338,4.338,0,0,0,1.723,1.522,4.57,4.57,0,0,0,.866.415c.719.212,2.237.769,4.683-.9" transform="translate(-39.322 -9.417)" fill="#21609b" fill-rule="evenodd"/>
  </g>
</svg>
