<svg xmlns="http://www.w3.org/2000/svg" width="82.021" height="56.158" viewBox="0 0 82.021 56.158">
  <path id="laravel-1" d="M81.7,26.225c-.585-.585-8.092-10.042-9.359-11.6-1.365-1.56-1.95-1.267-2.827-1.17S59.177,15.208,58.1,15.306c-1.072.195-1.755.585-1.072,1.56.585.877,6.824,9.652,8.189,11.7l-24.86,5.947L20.668,1.462C19.888.292,19.693-.1,17.938,0S2.437,1.267,1.462,1.267c-.975.1-2.047.487-1.072,2.827S16.963,39.971,17.353,40.946a3.351,3.351,0,0,0,4.192,1.95c2.73-.682,12.089-3.12,17.256-4.485,2.73,4.875,8.189,14.819,9.262,16.281,1.365,1.95,2.34,1.56,4.387.975,1.657-.487,25.543-9.067,26.615-9.554s1.755-.78.975-1.852C79.455,43.48,73.216,35,69.9,30.612c2.242-.585,10.334-2.73,11.211-3.022.975-.292,1.17-.78.585-1.365ZM36.559,35.486c-.292.1-14.234,3.412-14.916,3.607-.78.195-.78.1-.78-.195C20.668,38.606,4.29,4.679,4,4.289c-.195-.39-.195-.78,0-.78s13.161-1.17,13.551-1.17c.487,0,.39.1.585.39,0,0,18.231,31.489,18.523,31.977.39.487.195.682-.1.78ZM75.75,42.8c.195.39.487.585-.292.78-.682.292-23.5,7.994-23.983,8.189s-.78.292-1.365-.585-7.994-13.649-7.994-13.649L66.391,31.2c.585-.195.78-.292,1.17.292.39.682,7.994,11.016,8.189,11.309ZM77.31,25.64c-.585.1-9.457,2.34-9.457,2.34l-7.312-9.944c-.195-.292-.39-.585.1-.682s8.774-1.56,9.164-1.657.682-.195,1.17.487c.487.585,6.727,8.579,7.019,8.872s-.1.487-.682.585Z" transform="translate(-0.006 0.015)" fill="#fb503b"/>
</svg>
