<svg id="nuxt-square-white" xmlns="http://www.w3.org/2000/svg" width="79.508" height="60" viewBox="0 0 79.508 60">
  <path id="Path_81" data-name="Path 81" d="M45.4,17.424l-2.726,4.8L33.346,5.8,4.724,56.2H24.1A4.761,4.761,0,0,0,28.824,61H4.724A4.706,4.706,0,0,1,.637,58.6a4.87,4.87,0,0,1,0-4.8L29.259,3.4a4.682,4.682,0,0,1,8.177,0Z" transform="translate(-0.005 -1.004)" fill="#00c58e"/>
  <path id="Path_82" data-name="Path 82" d="M162.965,119.831,145.03,88.251l-2.726-4.8-2.726,4.8-17.933,31.58a4.87,4.87,0,0,0,0,4.8,4.706,4.706,0,0,0,4.088,2.4h33.14a4.708,4.708,0,0,0,4.089-2.4,4.87,4.87,0,0,0,0-4.8Zm-37.233,2.4L142.3,93.051l16.568,29.18Z" transform="translate(-96.912 -67.031)" fill="#fff"/>
  <path id="Path_83" data-name="Path 83" d="M261.405,98.549a4.706,4.706,0,0,1-4.087,2.4H244.489a4.761,4.761,0,0,0,4.721-4.8h8.1L234.329,55.684l-3.682,6.486-2.726-4.8,2.321-4.086a4.682,4.682,0,0,1,8.177,0l22.986,40.466A4.87,4.87,0,0,1,261.405,98.549Z" transform="translate(-182.53 -40.949)" fill="#108775"/>
</svg>
