<svg id="Layer_2_1_" xmlns="http://www.w3.org/2000/svg" width="57.598" height="56.158" viewBox="0 0 57.598 56.158">
  <g id="Surfaces">
    <g id="Photo_Surface">
      <g id="Outline_no_shadow">
        <path id="Path_72" data-name="Path 72" d="M10.2,0H47.4A10.191,10.191,0,0,1,57.6,10.2V45.958a10.191,10.191,0,0,1-10.2,10.2H10.2A10.191,10.191,0,0,1,0,45.958V10.2A10.191,10.191,0,0,1,10.2,0Z" fill="#001e36"/>
      </g>
    </g>
  </g>
  <g id="Outlined_Mnemonics_Logos" transform="translate(12.959 14.279)">
    <g id="Ps">
      <path id="Path_73" data-name="Path 73" d="M54,84.6V59.908c0-.168.072-.264.24-.264.408,0,.792,0,1.344-.024.576-.024,1.176-.024,1.824-.048s1.344-.024,2.088-.048S60.96,59.5,61.68,59.5a14.111,14.111,0,0,1,4.944.744,8.57,8.57,0,0,1,3.216,1.968,7.641,7.641,0,0,1,1.752,2.736,9.186,9.186,0,0,1,.552,3.12,8.58,8.58,0,0,1-1.44,5.112,8.222,8.222,0,0,1-3.864,2.928,15.554,15.554,0,0,1-5.4.816c-.576,0-.96,0-1.2-.024s-.576-.024-1.032-.024v7.7a.3.3,0,0,1-.264.336H54.288C54.1,84.915,54,84.819,54,84.6Zm5.232-20.327v8.064c.336.024.648.048.936.048H61.44a8.965,8.965,0,0,0,2.76-.432,4.127,4.127,0,0,0,1.968-1.272,3.708,3.708,0,0,0,.744-2.472,3.95,3.95,0,0,0-.552-2.136,3.48,3.48,0,0,0-1.68-1.368,7.042,7.042,0,0,0-2.832-.48c-.624,0-1.176,0-1.632.024a5.5,5.5,0,0,0-.984.024Z" transform="translate(-54 -59.5)" fill="#31a8ff"/>
      <path id="Path_74" data-name="Path 74" d="M152.7,89.724a8.494,8.494,0,0,0-2.3-.816,12.651,12.651,0,0,0-2.688-.312,4.832,4.832,0,0,0-1.44.168,1.232,1.232,0,0,0-.744.48,1.272,1.272,0,0,0-.192.648,1.067,1.067,0,0,0,.24.624,2.708,2.708,0,0,0,.816.648c.552.288,1.128.552,1.7.792a17.382,17.382,0,0,1,3.7,1.752,5.584,5.584,0,0,1,1.9,1.992,5.181,5.181,0,0,1,.552,2.472,5.584,5.584,0,0,1-.936,3.192,6.014,6.014,0,0,1-2.688,2.136,11,11,0,0,1-4.344.768,16.532,16.532,0,0,1-3.264-.312,9.681,9.681,0,0,1-2.448-.768.472.472,0,0,1-.264-.456V98.555a.261.261,0,0,1,.1-.216.183.183,0,0,1,.216.024,10.273,10.273,0,0,0,2.976,1.176,11.172,11.172,0,0,0,2.832.36,4.581,4.581,0,0,0,1.992-.336,1.115,1.115,0,0,0,.648-1.008,1.272,1.272,0,0,0-.576-.96,10.177,10.177,0,0,0-2.352-1.128,14.684,14.684,0,0,1-3.408-1.728,6.214,6.214,0,0,1-1.824-2.04,5.15,5.15,0,0,1-.552-2.448,5.645,5.645,0,0,1,.816-2.9,5.916,5.916,0,0,1,2.52-2.208,9.306,9.306,0,0,1,4.248-.84,20.689,20.689,0,0,1,2.976.216,8.444,8.444,0,0,1,2.064.552.421.421,0,0,1,.24.216,1.2,1.2,0,0,1,.048.288v3.912a.3.3,0,0,1-.12.24A.639.639,0,0,1,152.7,89.724Z" transform="translate(-119.579 -78.348)" fill="#31a8ff"/>
    </g>
  </g>
</svg>
