<svg id="php-1" xmlns="http://www.w3.org/2000/svg" width="107.882" height="56.158" viewBox="0 0 107.882 56.158">
  <ellipse id="Ellipse_1" data-name="Ellipse 1" cx="53.941" cy="28.079" rx="53.941" ry="28.079" transform="translate(0 0)" fill="#8993be"/>
  <path id="Path_53" data-name="Path 53" d="M35.945,54.343l5.912-29.926H55.526c5.911.37,8.867,3.325,8.867,8.5,0,8.867-7.019,14.039-13.3,13.67H44.443l-1.478,7.759Zm9.975-13.3,1.847-11.084h4.8c2.586,0,4.433,1.108,4.433,3.325-.369,6.281-3.325,7.389-6.65,7.759H45.921Zm17.1,5.542,5.911-29.926h7.02l-1.478,7.758h6.65c5.912.37,8.128,3.325,7.39,7.02L85.926,46.584H78.537l2.586-13.67c.369-1.847.369-2.956-2.217-2.956H73.364L70.039,46.584Zm22.433,7.759,5.911-29.926h13.67c5.912.37,8.867,3.325,8.867,8.5,0,8.867-7.02,14.039-13.3,13.67H93.95l-1.478,7.759Zm9.975-13.3,1.847-11.084h4.8c2.586,0,4.433,1.108,4.433,3.325-.369,6.281-3.325,7.389-6.65,7.759H95.428Z" transform="translate(-20.797 -9.638)" fill="#232531" fill-rule="evenodd"/>
</svg>
