<svg xmlns="http://www.w3.org/2000/svg" width="80.045" height="60" viewBox="0 0 80.045 60">
  <path id="sass-1" d="M68.791,34.694a16.491,16.491,0,0,0-7.255,1.689,14.922,14.922,0,0,1-1.626-3.752,10.379,10.379,0,0,1-.141-3.158,25.308,25.308,0,0,1,.954-3.409c-.016-.141-.172-.829-1.782-.844s-3,.313-3.158.735a17.957,17.957,0,0,0-.672,2.392c-.281,1.47-3.221,6.676-4.894,9.412a9.6,9.6,0,0,1-1.11-2.752,10.378,10.378,0,0,1-.141-3.158,25.321,25.321,0,0,1,.954-3.408c-.016-.141-.172-.829-1.782-.844s-3,.313-3.158.735-.328,1.423-.672,2.392c-.329.969-4.237,9.663-5.254,11.93-.516,1.157-.969,2.079-1.3,2.7s-.016.047-.047.109c-.281.532-.438.829-.438.829v.016c-.219.391-.453.766-.563.766a5.214,5.214,0,0,1,.031-2.486c.579-3.018,1.986-7.724,1.97-7.9,0-.078.266-.907-.907-1.329a1.425,1.425,0,0,0-1.642.281c-.094,0-.172.25-.172.25s1.266-5.3-2.423-5.3c-2.314,0-5.5,2.517-7.083,4.816-1,.547-3.127,1.7-5.379,2.939-.86.469-1.751.969-2.6,1.423l-.172-.188c-4.472-4.769-12.743-8.146-12.4-14.556.125-2.33.938-8.474,15.886-15.917,12.242-6.1,22.046-4.425,23.75-.7,2.423,5.316-5.238,15.2-17.965,16.62-4.847.547-7.4-1.329-8.037-2.033-.672-.735-.766-.766-1.016-.625-.407.219-.156.876,0,1.266a7.547,7.547,0,0,0,4.6,3.612c2.329.766,8.021,1.188,14.9-1.47C45.761,22.8,51.78,14.509,50.013,7.583,48.215.531,36.52-1.783,25.466,2.142c-6.583,2.345-13.712,6-18.841,10.8C.528,18.637-.442,23.609-.035,25.673,1.388,33.037,11.535,37.837,15.6,41.386c-.2.109-.391.219-.563.313-2.033,1-9.772,5.05-11.711,9.334-2.189,4.847.344,8.334,2.033,8.8,5.222,1.454,10.569-1.157,13.462-5.457,2.877-4.3,2.533-9.881,1.2-12.43l-.047-.094,1.595-.938c1.032-.61,2.048-1.173,2.939-1.657a19.467,19.467,0,0,0-1.047,5.316c-.219,2.752.907,6.317,2.392,7.724a2.647,2.647,0,0,0,1.923.625c1.72,0,2.5-1.423,3.362-3.127,1.063-2.079,2-4.487,2-4.487s-1.173,6.52,2.033,6.52c1.173,0,2.345-1.517,2.877-2.3v.016s.031-.047.094-.156.128-.2.188-.3v-.031c.469-.813,1.517-2.674,3.08-5.754,2.017-3.971,3.956-8.943,3.956-8.943a28.538,28.538,0,0,0,.766,3.221,30.821,30.821,0,0,0,1.673,3.752c-.469.657-.75,1.032-.75,1.032l.016.016c-.375.5-.8,1.032-1.235,1.564a45.441,45.441,0,0,0-3.752,4.706,1.288,1.288,0,0,0,.344,1.72,3.13,3.13,0,0,0,1.97.313,8.776,8.776,0,0,0,2.939-.672,10.18,10.18,0,0,0,2.533-1.329A5.639,5.639,0,0,0,52.3,43.7a10.028,10.028,0,0,0-.922-3.518c.141-.2.282-.407.422-.625a66,66,0,0,0,4.378-7.583,28.537,28.537,0,0,0,.766,3.221,22.581,22.581,0,0,0,1.423,3.221,13.9,13.9,0,0,0-4.268,5.519c-.922,2.658-.2,3.862,1.157,4.143a4.162,4.162,0,0,0,2.142-.438A9.706,9.706,0,0,0,60.1,46.249c1.564-1.157,3.065-2.767,2.986-4.941a9.472,9.472,0,0,0-.672-2.924,15.232,15.232,0,0,1,7.755-.891c6.958.813,8.334,5.16,8.068,6.973a4.67,4.67,0,0,1-2.2,3.127c-.485.3-.641.407-.594.625.063.328.281.313.7.25a5.412,5.412,0,0,0,3.784-4.831c.188-4.3-3.893-8.991-11.132-8.944Zm-53.66,18.09C12.833,55.3,9.6,56.255,8.22,55.442c-1.485-.86-.907-4.565,1.923-7.239a36.789,36.789,0,0,1,5.425-4.05c.328-.2.829-.5,1.423-.86a1.668,1.668,0,0,1,.156-.094c.109-.063.235-.141.36-.219a9.973,9.973,0,0,1-2.377,9.8ZM31.939,41.355c-.8,1.954-2.486,6.973-3.5,6.692-.876-.235-1.407-4.034-.172-7.786A17.382,17.382,0,0,1,31,35.241c1.267-1.407,2.642-1.876,2.986-1.3C34.394,34.694,32.439,40.135,31.939,41.355Zm13.868,6.629c-.344.172-.657.3-.8.2-.109-.063.141-.3.141-.3s1.736-1.861,2.423-2.721c.391-.5.86-1.079,1.36-1.736v.188c0,2.251-2.158,3.752-3.127,4.362ZM56.5,45.545c-.25-.188-.219-.766.625-2.58A9.667,9.667,0,0,1,59.5,39.9a3.868,3.868,0,0,1,.235,1.345A4.4,4.4,0,0,1,56.5,45.545Z" transform="translate(0.116 -0.241)" fill="#cf649a"/>
</svg>
