<svg xmlns="http://www.w3.org/2000/svg" width="18.104" height="18" viewBox="0 0 18.104 18">
  <g id="Visual_Studio_Code_1.35_icon" transform="translate(0.156 -0.66)">
    <path id="Path_218" data-name="Path 218" d="M17.308,2.569,13.58.774a1.127,1.127,0,0,0-1.286.219L.09,12.12a.754.754,0,0,0,0,1.115l1,.906a.754.754,0,0,0,.963.043l14.7-11.149a.749.749,0,0,1,1.2.6V3.588A1.131,1.131,0,0,0,17.308,2.569Z" transform="translate(0 -0.002)" fill="#0065a9"/>
    <g id="Group_72" data-name="Group 72" transform="translate(-0.156 4.985)">
      <path id="Path_219" data-name="Path 219" d="M17.308,73.624,13.58,75.419a1.127,1.127,0,0,1-1.286-.219L.09,64.073a.754.754,0,0,1,0-1.115l1-.906a.754.754,0,0,1,.963-.043l14.7,11.149a.749.749,0,0,0,1.2-.6v.043A1.131,1.131,0,0,1,17.308,73.624Z" transform="translate(0.156 -61.856)" fill="#007acc"/>
    </g>
    <g id="Group_73" data-name="Group 73" transform="translate(12.294 0.66)">
      <path id="Path_220" data-name="Path 220" d="M177.286,18.548A1.128,1.128,0,0,1,176,18.33a.662.662,0,0,0,1.131-.468V1.459A.662.662,0,0,0,176,.99a1.128,1.128,0,0,1,1.286-.219l3.727,1.793a1.131,1.131,0,0,1,.641,1.019V15.737a1.131,1.131,0,0,1-.641,1.019Z" transform="translate(-176 -0.66)" fill="#1f9cf0"/>
    </g>
    <g id="Group_74" data-name="Group 74" transform="translate(-0.156 0.66)" opacity="0.25" style="mix-blend-mode: overlay;isolation: isolate">
      <path id="Path_221" data-name="Path 221" d="M12.674,18.583a1.126,1.126,0,0,0,.9-.034L17.3,16.756a1.131,1.131,0,0,0,.64-1.019V3.583a1.131,1.131,0,0,0-.64-1.019L13.572.771A1.126,1.126,0,0,0,12.286.99L5.155,7.5,2.049,5.138a.753.753,0,0,0-.962.043l-1,.906A.754.754,0,0,0,.09,7.2L2.783,9.66.09,12.118a.754.754,0,0,0,0,1.115l1,.906a.753.753,0,0,0,.962.043l3.106-2.358,7.131,6.506A1.125,1.125,0,0,0,12.674,18.583Zm.742-13.03L8.005,9.66l5.411,4.107Z" transform="translate(0.156 -0.66)" fill="#fff" fill-rule="evenodd"/>
    </g>
  </g>
</svg>
