<svg xmlns="http://www.w3.org/2000/svg" xmlns:xlink="http://www.w3.org/1999/xlink" width="56.157" height="56.158" viewBox="0 0 56.157 56.158">
  <defs>
    <clipPath id="clip-path">
      <path id="Path_66" data-name="Path 66" d="M0,0H56.157V56.158H0Z"/>
    </clipPath>
  </defs>
  <g id="wordpress-blue" clip-path="url(#clip-path)">
    <path id="Path_61" data-name="Path 61" d="M212.59,41.794h-9.743v1.034c3.048,0,3.537.653,3.537,4.517v6.968c0,3.864-.489,4.572-3.537,4.572-2.339-.327-3.919-1.579-6.1-3.974l-2.5-2.721c3.374-.6,5.17-2.722,5.17-5.117,0-2.993-2.558-5.279-7.348-5.279h-9.579v1.034c3.048,0,3.537.653,3.537,4.517v6.968c0,3.864-.489,4.572-3.537,4.572v1.034h10.831V58.885c-3.047,0-3.538-.708-3.538-4.572V52.355h.925l6.042,7.565h15.839c7.783,0,11.158-4.136,11.158-9.09s-3.375-9.035-11.159-9.035Zm-22.805,8.871V43.427h2.231a3.338,3.338,0,0,1,3.538,3.647,3.322,3.322,0,0,1-3.538,3.592Zm22.969,7.566h-.381c-1.959,0-2.231-.489-2.231-2.993V43.427h2.613c5.661,0,6.694,4.136,6.694,7.348C219.448,54.095,218.414,58.232,212.754,58.232ZM152.175,52.68l3.755-11.1c1.089-3.211.6-4.136-2.884-4.136V36.351h10.233V37.44c-3.428,0-4.245.816-5.606,4.789l-6.206,18.615h-.707l-5.552-17.037-5.66,17.037h-.708L132.8,42.23c-1.306-3.973-2.177-4.789-5.334-4.789V36.351h12.083V37.44c-3.212,0-4.083.762-2.939,4.136l3.647,11.1,5.5-16.329h1.035l5.389,16.329Zm18.505,7.946c-5.987,0-10.886-4.408-10.886-9.8,0-5.334,4.9-9.743,10.886-9.743s10.886,4.409,10.886,9.743C181.566,56.218,176.668,60.626,170.68,60.626Zm0-17.852c-5.007,0-6.75,4.517-6.75,8.055,0,3.593,1.743,8.056,6.75,8.056,5.062,0,6.8-4.463,6.8-8.056,0-3.538-1.742-8.055-6.8-8.055Z" transform="translate(-69.042 -19.69)" fill="#00749a"/>
    <path id="Path_62" data-name="Path 62" d="M352.134,58.83v1.089H339.67V58.83c3.647,0,4.3-.925,4.3-6.369V43.753c0-5.444-.653-6.314-4.3-6.314V36.35h11.267c5.606,0,8.709,2.885,8.709,6.75,0,3.756-3.1,6.695-8.709,6.695h-3.1v2.666C347.834,57.9,348.487,58.83,352.134,58.83Zm-1.2-20.521h-3.1v9.471h3.1c3.048,0,4.463-2.123,4.463-4.681C355.4,40.487,353.985,38.309,350.937,38.309Zm46.1,16.493-.273.979c-.489,1.8-1.089,2.449-4.953,2.449h-.762c-2.83,0-3.32-.653-3.32-4.517v-2.5c4.246,0,4.572.38,4.572,3.211h1.034V46.311H392.3c0,2.83-.327,3.211-4.572,3.211v-6.1h2.993c3.865,0,4.463.653,4.953,2.449l.273,1.034h.87l-.38-5.116h-16v1.034c3.048,0,3.538.653,3.538,4.517v6.967c0,3.535-.416,4.426-2.819,4.553-2.284-.349-3.852-1.595-6-3.955l-2.5-2.721c3.375-.6,5.171-2.722,5.171-5.117,0-2.993-2.558-5.279-7.348-5.279H360.9v1.034c3.048,0,3.538.653,3.538,4.517v6.968c0,3.864-.49,4.572-3.538,4.572v1.034h10.832V58.885c-3.047,0-3.538-.708-3.538-4.572V52.354h.926l6.041,7.565h22.37l.327-5.116h-.818Zm-28.847-4.137V43.427h2.231a3.338,3.338,0,0,1,3.538,3.647,3.322,3.322,0,0,1-3.538,3.592Zm39.9,9.961a8.047,8.047,0,0,1-4.9-1.851,3.906,3.906,0,0,0-.87,1.851h-1.034V53.115h1.089a6.04,6.04,0,0,0,6.151,5.715c1.742,0,3.157-.98,3.157-2.612,0-1.415-1.251-2.5-3.483-3.538l-3.1-1.469c-2.178-1.035-3.81-2.832-3.81-5.226,0-2.613,2.449-4.844,5.824-4.844a6.816,6.816,0,0,1,4.246,1.415,3.074,3.074,0,0,0,.708-1.47h1.034v6.423h-1.143c-.381-2.558-1.8-4.681-4.681-4.681-1.524,0-2.939.87-2.939,2.232,0,1.415,1.143,2.177,3.756,3.374L411.08,49.9c2.613,1.252,3.647,3.267,3.647,4.9C414.727,58.231,411.733,60.626,408.086,60.626Zm16.764,0a8.044,8.044,0,0,1-4.9-1.851,3.906,3.906,0,0,0-.87,1.851h-1.035V53.115h1.089a6.039,6.039,0,0,0,6.151,5.715c1.742,0,3.157-.98,3.157-2.612,0-1.415-1.252-2.5-3.484-3.538l-3.1-1.469c-2.177-1.035-3.81-2.832-3.81-5.226,0-2.613,2.449-4.844,5.824-4.844a6.817,6.817,0,0,1,4.246,1.415,3.07,3.07,0,0,0,.707-1.47h1.035v6.423h-1.143c-.381-2.558-1.8-4.681-4.681-4.681-1.524,0-2.94.87-2.94,2.232,0,1.415,1.143,2.177,3.756,3.374l2.993,1.469c2.613,1.252,3.646,3.267,3.646,4.9,0,3.428-2.993,5.823-6.64,5.823Z" transform="translate(-183.984 -19.689)" fill="#464342"/>
    <g id="Group_4" data-name="Group 4">
      <path id="Path_63" data-name="Path 63" d="M8.708,32.795A24.093,24.093,0,0,0,22.284,54.474L10.793,22.992a24,24,0,0,0-2.085,9.8Zm40.349-1.216a12.682,12.682,0,0,0-1.986-6.643c-1.221-1.984-2.365-3.664-2.365-5.649a4.171,4.171,0,0,1,4.044-4.275c.107,0,.208.013.313.019A24.083,24.083,0,0,0,12.67,19.565c.565.017,1.1.028,1.55.028,2.52,0,6.42-.306,6.42-.306a1,1,0,0,1,.155,1.984s-1.305.154-2.757.23l8.772,26.091,5.272-15.81L28.327,21.5c-1.3-.076-2.526-.23-2.526-.23a1,1,0,0,1,.152-1.984s3.978.306,6.345.306c2.519,0,6.42-.306,6.42-.306a1,1,0,0,1,.154,1.984s-1.308.154-2.757.23l8.7,25.894,2.4-8.029C48.264,36.034,49.057,33.641,49.057,31.579Z" transform="translate(-4.717 -4.717)" fill="#00749a"/>
      <path id="Path_64" data-name="Path 64" d="M53.643,49.71l-7.227,21a24.094,24.094,0,0,0,14.8-.384,2.041,2.041,0,0,1-.171-.332ZM74.357,36.046a18.487,18.487,0,0,1,.162,2.477,22.722,22.722,0,0,1-1.832,8.628L65.33,68.424a24.092,24.092,0,0,0,9.027-32.378Z" transform="translate(-25.142 -19.525)" fill="#00749a"/>
      <path id="Path_65" data-name="Path 65" d="M28.079,0a28.079,28.079,0,1,0,28.08,28.078A28.111,28.111,0,0,0,28.079,0Zm0,54.871a26.791,26.791,0,1,1,26.79-26.792,26.823,26.823,0,0,1-26.79,26.792Z" fill="#00749a"/>
    </g>
  </g>
</svg>
