<svg id="Layer_2_1_" xmlns="http://www.w3.org/2000/svg" width="61.538" height="60" viewBox="0 0 61.538 60">
  <g id="Surfaces">
    <g id="UI_UX_Surface">
      <g id="Outline_no_shadow">
        <path id="Path_75" data-name="Path 75" d="M10.9,0H50.641a10.888,10.888,0,0,1,10.9,10.9V49.1A10.888,10.888,0,0,1,50.641,60H10.9A10.888,10.888,0,0,1,0,49.1V10.9A10.888,10.888,0,0,1,10.9,0Z" fill="#470137"/>
      </g>
    </g>
  </g>
  <g id="Outlined_Mnemonics_Logos" transform="translate(8.964 13.15)">
    <g id="Xd">
      <path id="Path_76" data-name="Path 76" d="M58.355,60.385,50.663,73.077l8.205,13.462a.441.441,0,0,1,.051.308c-.026.1-.128.026-.282.051H52.766c-.41,0-.692-.026-.872-.282-.538-1.077-1.1-2.128-1.641-3.205-.538-1.051-1.128-2.128-1.744-3.231s-1.231-2.205-1.846-3.333h-.051c-.538,1.1-1.128,2.205-1.718,3.308s-1.179,2.205-1.744,3.282c-.59,1.077-1.179,2.179-1.769,3.231-.1.256-.308.282-.59.282H35.15c-.1,0-.179.051-.179-.077a.356.356,0,0,1,.051-.282L43,73.513,35.227,60.359c-.077-.1-.1-.205-.051-.256a.3.3,0,0,1,.256-.1h5.821a1.513,1.513,0,0,1,.359.051.727.727,0,0,1,.256.231c.487,1.1,1.051,2.205,1.641,3.308.615,1.1,1.205,2.179,1.846,3.256.615,1.077,1.179,2.154,1.718,3.256h.051c.538-1.128,1.1-2.231,1.667-3.308s1.154-2.154,1.744-3.231,1.154-2.179,1.718-3.231a.436.436,0,0,1,.154-.256.489.489,0,0,1,.333-.051h5.41a.236.236,0,0,1,.282.179c.026.026-.026.128-.077.179Z" transform="translate(-34.961 -57.765)" fill="#ff61f6"/>
      <path id="Path_77" data-name="Path 77" d="M141.092,80.955a12.747,12.747,0,0,1-5.513-1.154,8.939,8.939,0,0,1-3.872-3.487,11.1,11.1,0,0,1-1.41-5.846,10.531,10.531,0,0,1,1.41-5.41,10.648,10.648,0,0,1,4.077-3.974,13.116,13.116,0,0,1,6.487-1.487,4.579,4.579,0,0,1,.538.026c.231.026.487.026.795.051v-8.1c0-.179.077-.282.256-.282h5.205a.23.23,0,0,1,.256.179V75.929c0,.462.026.974.051,1.538.051.538.077,1.051.1,1.487a.416.416,0,0,1-.256.41,19.583,19.583,0,0,1-4.179,1.231A22.618,22.618,0,0,1,141.092,80.955Zm2.513-5.128V64.545a6.556,6.556,0,0,0-.692-.128c-.282-.026-.564-.051-.846-.051a6.321,6.321,0,0,0-2.9.667,5.748,5.748,0,0,0-2.179,1.9,5.684,5.684,0,0,0-.846,3.256,7.145,7.145,0,0,0,.436,2.641,5.011,5.011,0,0,0,1.154,1.821,4.43,4.43,0,0,0,1.744,1.026,6.712,6.712,0,0,0,2.128.333c.385,0,.744-.026,1.077-.051A2.243,2.243,0,0,0,143.6,75.827Z" transform="translate(-105.851 -51.284)" fill="#ff61f6"/>
    </g>
  </g>
</svg>
